#!OML:ASF I:\Random Stuff\random\construction\7_22_03\Session 2\subj1.ASF
:FULLY-SPECIFIED
:DEGREES
564
root -4.35174 17.9453 1.0494 -7.15552 81.0797 -17.693
lowerback 4.31915 0.207737 0.983507
upperback -0.726887 0.385394 1.46353
thorax -3.1741 0.191321 0.927233
lowerneck -24.5989 -0.200636 -0.299961
upperneck 38.7258 0.157535 1.64314
head 18.9036 0.593119 0.990991
rclavicle 1.81143e-014 -1.56046e-014
rhumerus -7.45412 25.3052 -95.3272
rradius 66.126
rwrist -31.1114
rhand -44.1079 6.4721
rfingers 7.12502
rthumb -16.925 -22.8104
lclavicle 1.81143e-014 -1.56046e-014
lhumerus -12.5001 -43.6449 98.2926
lradius 72.9301
lwrist 61.7211
lhand -15.646 64.2171
lfingers 7.12502
lthumb 10.5416 -93.9328
rfemur -8.02758 14.7352 18.6593
rtibia 3.37934e-014
rfoot 3.13269 -20.4021
rtoes -18.0065
lfemur -11.7865 -17.4146 -10.1674
ltibia 12.8411
lfoot -10.799 27.0329
ltoes -23.8946
565
root -4.3263 17.9422 1.05487 -7.71541 81.149 -18.2283
lowerback 4.05618 0.222633 0.958134
upperback -0.786763 0.40338 1.55226
thorax -3.08885 0.202077 1.03235
lowerneck -24.4756 -0.716186 -0.699148
upperneck 38.7952 -0.566137 1.90508
head 18.9295 0.293669 1.02456
rclavicle -2.11457e-014 -1.22253e-014
rhumerus -7.9034 24.6322 -94.7376
rradius 66.7305
rwrist -30.8527
rhand -44.0472 7.07631
rfingers 7.12502
rthumb -16.8666 -22.2112
lclavicle -2.11457e-014 -1.22253e-014
lhumerus -13.8643 -44.8982 98.859
lradius 74.0392
lwrist 60.6713
lhand -16.0507 63.8013
lfingers 7.12502
lthumb 10.1513 -93.5364
rfemur -7.82039 14.6658 18.7891
rtibia 6.36111e-015
rfoot 2.94319 -20.4103
rtoes -17.8788
lfemur -11.7404 -17.8912 -10.0811
ltibia 12.997
lfoot -11.0663 27.381
ltoes -23.5663
566
root -4.301 17.938 1.05865 -8.55866 81.2379 -18.9938
lowerback 3.84938 0.216548 0.976516
upperback -0.829488 0.397015 1.65277
thorax -3.01709 0.200136 1.12653
lowerneck -24.3082 -1.26803 -1.19575
upperneck 38.8727 -1.36019 2.30374
head 18.9617 -0.0270542 1.12614
rclavicle 1.87603e-014 2.96189e-014
rhumerus -8.38962 23.9369 -94.1013
rradius 67.3402
rwrist -30.7108
rhand -44.253 8.22915
rfingers 7.12502
rthumb -17.0648 -21.0414
lclavicle 1.87603e-014 2.96189e-014
lhumerus -15.2249 -46.0087 99.4472
lradius 74.8714
lwrist 59.3843
lhand -16.1055 63.3401
lfingers 7.12502
lthumb 10.0984 -93.0778
rfemur -7.54957 14.5713 18.9574
rtibia -7.15625e-015
rfoot 2.68579 -20.4598
rtoes -17.5392
lfemur -11.6073 -18.397 -9.98743
ltibia 13.0872
lfoot -11.4202 27.7216
ltoes -22.9277
567
root -4.27549 17.9347 1.06222 -9.32226 81.3845 -19.6592
lowerback 3.69263 0.209492 1.00722
upperback -0.880319 0.389561 1.71576
thorax -2.98145 0.196911 1.17506
lowerneck -24.1416 -1.84677 -1.69699
upperneck 38.9406 -2.22384 2.76278
head 19.005 -0.366715 1.24256
rclavicle 8.84592e-015 1.21259e-014
rhumerus -8.92726 23.107 -93.4746
rradius 67.9991
rwrist -30.6848
rhand -44.603 9.29053
rfingers 7.12502
rthumb -17.4016 -19.9505
lclavicle 8.84592e-015 1.21259e-014
lhumerus -16.6114 -46.9917 100.051
lradius 75.4583
lwrist 57.9694
lhand -15.7474 63.2103
lfingers 7.12502
lthumb 10.4438 -92.9309
rfemur -7.25622 14.4197 19.0967
rtibia 1.82882e-014
rfoot 2.30108 -20.5663
rtoes -16.7932
lfemur -11.4648 -18.6289 -9.95996
ltibia 13.154
lfoot -11.6799 27.7488
ltoes -22.4895
568
root -4.24863 17.9309 1.06738 -9.8075 81.6216 -20.0314
lowerback 3.51106 0.185583 0.966048
upperback -0.915248 0.354327 1.75948
thorax -2.91529 0.180805 1.24575
lowerneck -23.8704 -2.52603 -2.20233
upperneck 38.8903 -3.21846 3.14564
head 18.967 -0.77365 1.28981
rclavicle -2.33572e-014 -5.76476e-015
rhumerus -9.47147 22.1429 -92.8161
rradius 68.681
rwrist -30.7096
rhand -44.665 10.0308
rfingers 7.12502
rthumb -17.4613 -19.2049
lclavicle -2.33572e-014 -5.76476e-015
lhumerus -18.0863 -47.7443 100.691
lradius 75.9186
lwrist 56.5274
lhand -16.5769 62.0767
lfingers 7.12502
lthumb 9.6436 -91.836
rfemur -6.92865 14.1858 19.1764
rtibia 9.54166e-015
rfoot 1.90587 -20.6719
rtoes -15.9653
lfemur -11.3413 -18.6343 -10.0266
ltibia 13.2279
lfoot -11.7616 27.4939
ltoes -22.5055
569
root -4.22181 17.9262 1.07405 -10.4079 81.9323 -20.4789
lowerback 3.35464 0.12313 0.888872
upperback -0.94219 0.267076 1.81986
thorax -2.85436 0.139549 1.35659
lowerneck -23.4839 -3.19337 -2.82071
upperneck 38.8023 -4.19432 3.64688
head 18.8981 -1.17525 1.41893
rclavicle -1.1281e-014 2.22639e-014
rhumerus -10.075 21.1361 -92.1273
rradius 69.3732
rwrist -30.7385
rhand -44.6356 10.8443
rfingers 7.12502
rthumb -17.433 -18.394
lclavicle -1.1281e-014 2.22639e-014
lhumerus -19.6322 -48.1232 101.393
lradius 76.1985
lwrist 55.0237
lhand -16.4762 62.3441
lfingers 7.12502
lthumb 9.74077 -92.0989
rfemur -6.54276 13.8783 19.2626
rtibia 9.54166e-015
rfoot 1.57336 -20.7425
rtoes -15.2497
lfemur -11.1887 -18.5156 -10.1239
ltibia 13.2838
lfoot -11.7117 27.0813
ltoes -23.0091
570
root -4.19682 17.9211 1.08024 -11.3592 82.2539 -21.2316
lowerback 3.31641 0.0755117 0.908243
upperback -0.982264 0.205665 1.84637
thorax -2.87313 0.109081 1.37665
lowerneck -23.0998 -3.83383 -3.40929
upperneck 38.6972 -5.17012 4.20616
head 18.8405 -1.56522 1.57122
rclavicle 1.46604e-015 -2.78299e-015
rhumerus -10.7816 19.9593 -91.4342
rradius 70.0687
rwrist -30.713
rhand -44.5838 11.4785
rfingers 7.12502
rthumb -17.3831 -17.7641
lclavicle 1.46604e-015 -2.78299e-015
lhumerus -21.1729 -48.3231 102.106
lradius 76.2396
lwrist 53.5849
lhand -16.5494 62.6056
lfingers 7.12502
lthumb 9.67007 -92.3637
rfemur -6.11639 13.5524 19.3901
rtibia 1.11319e-014
rfoot 1.2771 -20.7965
rtoes -14.6477
lfemur -10.9758 -18.3826 -10.2002
ltibia 13.2987
lfoot -11.5662 26.6338
ltoes -23.9217
571
root -4.17311 17.9165 1.08503 -12.3627 82.5717 -22.0789
lowerback 3.32735 0.0584047 0.996096
upperback -1.06987 0.189157 1.8413
thorax -2.96902 0.09943 1.32333
lowerneck -22.7155 -4.5435 -3.97807
upperneck 38.6261 -6.25196 4.7334
head 18.8276 -1.99856 1.68215
rclavicle -2.55935e-015 -2.5842e-015
rhumerus -11.5639 18.673 -90.7019
rradius 70.6687
rwrist -30.6689
rhand -44.4772 11.9596
rfingers 7.12502
rthumb -17.2806 -17.2921
lclavicle -2.55935e-015 -2.5842e-015
lhumerus -22.7004 -48.4071 102.806
lradius 76.0396
lwrist 52.4933
lhand -16.8256 62.4733
lfingers 7.12502
lthumb 9.40358 -92.2436
rfemur -5.75617 13.2254 19.5006
rtibia -1.43125e-014
rfoot 1.00186 -20.8457
rtoes -14.1408
lfemur -10.8024 -18.3888 -10.2472
ltibia 13.2881
lfoot -11.4135 26.3466
ltoes -24.8508
572
root -4.14871 17.9136 1.09103 -13.1609 82.9156 -22.7989
lowerback 3.26592 0.0176931 1.00189
upperback -1.17893 0.137734 1.87078
thorax -3.04615 0.0743552 1.35373
lowerneck -22.3109 -5.31018 -4.69193
upperneck 38.5713 -7.41715 5.38488
head 18.8646 -2.46919 1.86037
rclavicle 1.87603e-014 7.95139e-016
rhumerus -12.3797 17.5086 -89.9299
rradius 71.2011
rwrist -30.6466
rhand -44.4199 12.6096
rfingers 7.12502
rthumb -17.2253 -16.647
lclavicle 1.87603e-014 7.95139e-016
lhumerus -24.146 -47.8743 103.441
lradius 75.6322
lwrist 51.4933
lhand -16.6228 63.0715
lfingers 7.12502
lthumb 9.59927 -92.8328
rfemur -5.49879 12.8749 19.5542
rtibia 8.74653e-015
rfoot 0.766724 -20.8803
rtoes -13.7505
lfemur -10.703 -18.5145 -10.2892
ltibia 13.2426
lfoot -11.3181 26.1812
ltoes -25.5425
573
root -4.1247 17.9116 1.09954 -13.9476 83.2353 -23.5051
lowerback 3.22364 -0.0435944 0.949148
upperback -1.28397 0.0574417 1.92316
thorax -3.12953 0.0364056 1.44234
lowerneck -21.9355 -6.05152 -5.50562
upperneck 38.4538 -8.6029 6.26094
head 18.9287 -2.93298 2.15656
rclavicle -2.95692e-015 -1.78906e-014
rhumerus -13.2384 16.4399 -89.1436
rradius 71.6903
rwrist -30.6434
rhand -44.2514 13.307
rfingers 7.12502
rthumb -17.0632 -15.9637
lclavicle -2.95692e-015 -1.78906e-014
lhumerus -25.5207 -46.4029 103.945
lradius 75.1893
lwrist 50.0766
lhand -15.8615 64.2069
lfingers 7.12502
lthumb 10.3338 -93.933
rfemur -5.26203 12.5496 19.6091
rtibia -2.38542e-014
rfoot 0.629552 -20.9019
rtoes -13.5819
lfemur -10.5647 -18.6751 -10.3241
ltibia 13.1427
lfoot -11.2329 26.0941
ltoes -26.2802
574
root -4.10366 17.9097 1.11104 -14.402 83.4273 -23.8723
lowerback 3.28485 -0.0639152 0.86745
upperback -1.41307 0.0324697 1.95542
thorax -3.29696 0.026535 1.52376
lowerneck -21.6433 -6.78844 -6.23267
upperneck 38.3301 -9.84553 7.18113
head 19.0521 -3.39907 2.44294
rclavicle 1.41634e-015 -5.1684e-015
rhumerus -14.1479 15.2674 -88.3369
rradius 72.0089
rwrist -30.5005
rhand -43.7611 14.0145
rfingers 7.12502
rthumb -16.5912 -15.2963
lclavicle 1.41634e-015 -5.1684e-015
lhumerus -26.9669 -44.2136 104.365
lradius 74.783
lwrist 48.894
lhand -14.9445 65.0278
lfingers 7.12502
lthumb 11.2183 -94.7079
rfemur -5.06469 12.3591 19.6621
rtibia 7.95139e-015
rfoot 0.595942 -20.9134
rtoes -13.6812
lfemur -10.3695 -18.6972 -10.3684
ltibia 13.0152
lfoot -11.1447 26.0416
ltoes -26.989
575
root -4.08381 17.9078 1.12377 -14.8081 83.5915 -24.1979
lowerback 3.4132 -0.0956103 0.77966
upperback -1.5507 -0.00656172 1.98741
thorax -3.51089 0.0101472 1.60974
lowerneck -21.4767 -7.51694 -6.81829
upperneck 38.2939 -11.0946 7.98317
head 19.2764 -3.85781 2.64477
rclavicle 3.20292e-014 -5.76476e-015
rhumerus -15.0684 14.0296 -87.5333
rradius 72.1464
rwrist -30.2102
rhand -43.0112 14.7762
rfingers 7.12502
rthumb -15.8692 -14.5935
lclavicle 3.20292e-014 -5.76476e-015
lhumerus -28.3556 -41.544 104.6
lradius 74.345
lwrist 48.9309
lhand -14.4638 65.5794
lfingers 7.12502
lthumb 11.6818 -95.2337
rfemur -4.87916 12.1977 19.7216
rtibia -5.56597e-015
rfoot 0.598315 -20.9098
rtoes -14.137
lfemur -10.1701 -18.5811 -10.4059
ltibia 12.8801
lfoot -11.1332 25.8081
ltoes -27.1321
576
root -4.06174 17.9064 1.13054 -16.2148 83.9501 -25.5622
lowerback 3.46526 -0.239604 0.791871
upperback -1.63957 -0.191481 2.05808
thorax -3.62804 -0.0804501 1.68872
lowerneck -20.7618 -8.18492 -7.6884
upperneck 37.3908 -12.34 9.34755
head 18.9541 -4.33012 3.13598
rclavicle -2.37548e-014 3.18055e-014
rhumerus -15.8608 12.8102 -86.6942
rradius 72.135
rwrist -29.8786
rhand -42.1171 15.3011
rfingers 7.12502
rthumb -15.008 -14.135
lclavicle -2.37548e-014 3.18055e-014
lhumerus -29.397 -38.398 104.442
lradius 73.8618
lwrist 49.4463
lhand -13.8765 66.5992
lfingers 7.12502
lthumb 12.2481 -96.2205
rfemur -4.69036 11.8158 19.7952
rtibia -5.56597e-015
rfoot 0.602949 -20.8961
rtoes -14.7257
lfemur -10.0772 -18.837 -10.3755
ltibia 12.7319
lfoot -11.1787 25.6464
ltoes -26.8764
577
root -4.03995 17.9049 1.13931 -17.6949 84.3808 -27.0048
lowerback 3.49917 -0.406236 0.728939
upperback -1.69749 -0.41111 2.14233
thorax -3.70107 -0.186448 1.8264
lowerneck -20.2037 -8.80104 -8.1038
upperneck 36.4837 -13.4408 10.1492
head 18.5789 -4.76416 3.29508
rclavicle 7.45443e-015 -6.36111e-015
rhumerus -16.6298 11.4569 -85.8285
rradius 72.0484
rwrist -29.5184
rhand -41.1368 15.559
rfingers 7.12502
rthumb -14.0635 -13.9452
lclavicle 7.45443e-015 -6.36111e-015
lhumerus -30.1762 -35.0395 104.023
lradius 73.3426
lwrist 49.9223
lhand -14.1055 67.346
lfingers 7.12502
lthumb 12.0274 -96.9804
rfemur -4.49336 11.3655 19.8446
rtibia 7.95139e-016
rfoot 0.555755 -20.8985
rtoes -14.7491
lfemur -10.0122 -18.9652 -10.3785
ltibia 12.5874
lfoot -11.1027 25.3191
ltoes -27.0267
578
root -4.01657 17.9037 1.15198 -18.5384 84.7555 -27.8255
lowerback 3.52794 -0.514792 0.596086
upperback -1.77157 -0.557844 2.20083
thorax -3.78844 -0.254669 1.97248
lowerneck -19.8235 -9.38679 -8.20111
upperneck 35.7019 -14.4345 10.5231
head 18.2404 -5.16678 3.21861
rclavicle -1.86361e-014 1.78906e-014
rhumerus -17.542 9.96708 -84.9611
rradius 71.9675
rwrist -29.2459
rhand -40.3167 16.2185
rfingers 7.12502
rthumb -13.273 -13.3389
lclavicle -1.86361e-014 1.78906e-014
lhumerus -30.8989 -31.7211 103.533
lradius 72.7813
lwrist 50.4259
lhand -15.6551 66.9789
lfingers 7.12502
lthumb 10.5329 -96.695
rfemur -4.32435 10.9902 19.8406
rtibia 1.82882e-014
rfoot 0.414035 -20.9073
rtoes -14.2086
lfemur -9.91851 -19.2532 -10.4139
ltibia 12.4231
lfoot -11.1108 25.2106
ltoes -26.8401
